<?xml version="1.0" encoding="utf-8"?>
<!-- Generator: Adobe Illustrator 28.0.0, SVG Export Plug-In . SVG Version: 6.00 Build 0)  -->
<svg version="1.1" id="Warstwa_1" xmlns="http://www.w3.org/2000/svg" xmlns:xlink="http://www.w3.org/1999/xlink" x="0px" y="0px"
	 viewBox="0 0 2215.5 654.8" style="enable-background:new 0 0 2215.5 654.8;" xml:space="preserve">
<style type="text/css">
	.st0{fill:#343738;}
</style>
<g>
	<path class="st0" d="M47.3,76.9h154.8v377.7h241.7v123.4H47.3V76.9z"/>
	<path class="st0" d="M482.8,327.7c0-81.8,22.8-145.5,68.4-191.1c45.6-45.6,109-68.4,190.4-68.4c83.4,0,147.7,22.4,192.8,67.2
		S1002,243,1002,323.6c0,58.6-9.9,106.6-29.6,144.1c-19.7,37.5-48.2,66.7-85.4,87.5s-83.7,31.3-139.3,31.3c-56.5,0-103.3-9-140.3-27
		c-37-18-67.1-46.5-90.1-85.4C494.3,435.1,482.8,386.3,482.8,327.7z M637.6,328.4c0,50.6,9.4,86.9,28.2,109
		c18.8,22.1,44.4,33.2,76.7,33.2c33.3,0,59-10.8,77.2-32.5c18.2-21.6,27.3-60.5,27.3-116.6c0-47.2-9.5-81.6-28.5-103.4
		c-19-21.8-44.8-32.6-77.4-32.6c-31.2,0-56.3,11.1-75.2,33.2C647.1,240.8,637.6,277.4,637.6,328.4z"/>
	<path class="st0" d="M1337.3,396.4V292.2h239.3v213.6c-45.8,31.2-86.3,52.5-121.5,63.7s-77,16.9-125.3,16.9
		c-59.5,0-108-10.1-145.4-30.4c-37.5-20.3-66.5-50.5-87.2-90.6c-20.6-40.1-30.9-86.1-30.9-138.1c0-54.7,11.3-102.3,33.8-142.7
		c22.6-40.4,55.6-71.1,99.1-92.1c33.9-16.2,79.6-24.3,137.1-24.3c55.4,0,96.8,5,124.2,15c27.5,10,50.2,25.6,68.4,46.7
		c18.1,21.1,31.7,47.8,40.8,80.2l-149.4,26.7c-6.2-18.9-16.6-33.4-31.3-43.4c-14.7-10-33.4-15-56.2-15c-34,0-61,11.8-81.2,35.4
		s-30.2,60.9-30.2,111.9c0,54.2,10.2,93,30.6,116.2c20.4,23.2,48.8,34.9,85.3,34.9c17.3,0,33.8-2.5,49.6-7.5
		c15.7-5,33.7-13.6,54-25.6v-47.2H1337.3z"/>
	<path class="st0" d="M1649,327.7c0-81.8,22.8-145.5,68.4-191.1c45.6-45.6,109-68.4,190.4-68.4c83.4,0,147.7,22.4,192.8,67.2
		s67.7,107.5,67.7,188.2c0,58.6-9.9,106.6-29.6,144.1c-19.7,37.5-48.2,66.7-85.4,87.5s-83.7,31.3-139.3,31.3
		c-56.5,0-103.3-9-140.3-27c-37-18-67.1-46.5-90.1-85.4C1660.5,435.1,1649,386.3,1649,327.7z M1803.8,328.4
		c0,50.6,9.4,86.9,28.2,109c18.8,22.1,44.4,33.2,76.7,33.2c33.3,0,59-10.8,77.2-32.5c18.2-21.6,27.3-60.5,27.3-116.6
		c0-47.2-9.5-81.6-28.5-103.4c-19-21.8-44.8-32.6-77.4-32.6c-31.2,0-56.3,11.1-75.2,33.2C1813.3,240.8,1803.8,277.4,1803.8,328.4z"
		/>
</g>
</svg>
